<?xml version="1.0" encoding="UTF-8"?>
<!DOCTYPE svg PUBLIC "-//W3C//DTD SVG 1.1//EN" "http://www.w3.org/Graphics/SVG/1.1/DTD/svg11.dtd">
<!-- Creator: CorelDRAW X5 -->
<svg xmlns="http://www.w3.org/2000/svg" xml:space="preserve" width="11811px" height="11811px" style="shape-rendering:geometricPrecision; text-rendering:geometricPrecision; image-rendering:optimizeQuality; fill-rule:evenodd; clip-rule:evenodd"
viewBox="0 0 1181100000 1181100000"
 xmlns:xlink="http://www.w3.org/1999/xlink">
 <defs>
  <style type="text/css">
   <![CDATA[
    .fil0 {fill:#FEFEFE}
    .fil2 {fill:#252322;fill-rule:nonzero}
    .fil1 {fill:#FECC00;fill-rule:nonzero}
   ]]>
  </style>
 </defs>
 <g id="Warstwa_x0020_1">
  <metadata id="CorelCorpID_0Corel-Layer"/>
  <polygon class="fil0" points="0,0 1181100000,0 1181100000,1181100000 0,1181100000 "/>
  <path class="fil1" d="M120736885 257067242l3377710 0 0 -47942266 -2814916 0c-1250431,-62953 -2095035,-469369 -2532633,-1219840 -438188,-875786 -656928,-2470861 -656928,-4784754 0,-3503024 1032163,-5254005 3096017,-5254005l16606266 0c2751963,0 4128181,969329 4128181,2908459 0,5566406 -1094525,8350141 -3283694,8350141l-2345546 0 938148 18764136 94016 29178131 2814443 0c2189169,62362 3283694,1063344 3283694,3002002 -125315,5566879 -1657438,8350023 -4597077,8350023l-17732445 0c-1125706,-62362 -1907477,-469251 -2345074,-1219722 -438188,-875786 -656928,-2501570 -656928,-4878297 0,-3503024 875786,-5254005 2626766,-5254005z"/>
  <polygon class="fil1" points="154497801,219351294 152058594,219351294 149337812,214378508 148869033,201806526 150557652,197866376 155999334,197866376 157687952,201806526 157218583,214378508 "/>
  <path class="fil1" d="M199529010 266448955l0 -42594600 -6098137 11352615 -9475847 0 -5723374 -11165056 0 42313498c0,1125825 -31181,1876295 -93543,2251531 -250511,875786 -1469761,1313383 -3658930,1313383 -6255106,0 -9382304,-1156887 -9382304,-3471371l0 -66518725c0,-2376728 2157870,-3565387 6473845,-3565387 4315385,0 6911443,1157478 7786756,3471843l9475847 24205227 9945216 -24299243c500432,-1376336 1110352,-2283303 1829642,-2720900 719408,-437598 1985665,-656928 3799599,-656928 4503534,0 6786246,1219840 6849081,3659520l1501060 27958291 0 37809964c0,1876177 -172322,3033183 -516377,3471253 -343582,437598 -1469761,656455 -3377237,656455 -1907949,0 -3456017,-62362 -4644085,-187677 -1188659,-124724 -2267358,-453424 -3236686,-985156 -969919,-531613 -1454525,-1297438 -1454525,-2298539z"/>
  <path class="fil1" d="M257960390 266448955l0 -57323980 -11727851 0c-1501060,-62953 -2470389,-469369 -2908459,-1219840 -562912,-875786 -844132,-2439680 -844132,-4691211 0,-3564914 1062872,-5347548 3189679,-5347548l34151034 0c3627276,0 5441091,969329 5441091,2908459 0,5566406 -1500942,8350141 -4502944,8350141l-10508129 -94134 844605 19045828 93543 38184727c0,1188659 -31181,1970311 -93543,2345546 -250511,875786 -1469879,1313383 -3659048,1313383 -6317350,0 -9475847,-1156887 -9475847,-3471371z"/>
  <path class="fil1" d="M318560977 199554995c0,-1313383 297047,-2173342 891612,-2580231 594093,-406417 1829288,-609920 3705583,-609920 4503534,0 6786719,1157478 6849081,3471843l1782634 28145967 0 38466301c0,1063462 -31181,1782752 -94016,2157988 -250039,875786 -1469879,1313383 -3658930,1313383 -6316995,0 -9475965,-1125706 -9475965,-3377237l0 -27208292 -15386308 0 93543 27114158c0,1063462 -31181,1782752 -93543,2157988 -250511,875786 -1469761,1313383 -3658930,1313383 -6255106,0 -9382304,-1188068 -9382304,-3564914l0 -66706402c0,-1376218 297047,-2267358 891612,-2674247 593975,-406417 1829170,-609920 3705465,-609920 4503534,0 6786719,1094525 6849081,3284167l1595076 28427660 15386308 0 0 -28521675z"/>
  <path class="fil1" d="M371361108 225731123c2501570,0 3752473,1125706 3752473,3377237 0,3064955 -187559,5160462 -562794,6286287 -375235,1125706 -1344564,1688619 -2908459,1688619l-18388900 0 0 19983976 21672594 0c1500942,62362 2533223,359291 3096017,891022 562912,531731 844605,1329210 844605,2392672 0,3064836 -281692,5175816 -844605,6332704 -562794,1157006 -1688619,1735626 -3377237,1735626l-33025210 0 -1501060 -1500942 0 -69051949 33306429 0c2689719,62362 4034283,1063344 4034283,3002002 -62362,1688619 -156496,3017829 -281220,3987630 -125197,969329 -516377,1923303 -1172832,2861451 -656928,938148 -1610902,1407517 -2861923,1407517l-20921533 0 1031691 16606148 18107680 0z"/>
  <path class="fil2" d="M409622015 233611895c0,-9945216 781652,-17575949 2345546,-22892435 1563895,-5316367 4049992,-9037659 7458528,-11164466 3408891,-2126807 8334786,-3190151 14776978,-3190151 6442074,0 11367969,1063344 14776860,3190151 3408536,2126807 5879280,5832744 7411521,11117931 1532713,5285304 2298539,12931391 2298539,22938970 0,13697689 -1750981,23173654 -5253533,28427660 -3503024,5254005 -9914035,7880772 -19233387,7880772 -9319470,0 -15746307,-2626766 -19280040,-7880772 -3534206,-5254005 -5301013,-14729971 -5301013,-28427660zm15668000 -17497760c-375235,2345546 -594093,4722392 -656928,7130773 -62362,2408027 -93543,6489200 -93543,12243283 0,5754555 187559,10570373 562794,14448751 375354,3877669 875786,6426247 1501060,7646087 625747,1219840 1469761,1829760 2533223,1829760 5504044,0 9100612,-563385 10789230,-1689209 625747,-437598 1235667,-1156887 1829760,-2157870 594093,-1000510 1016337,-2032791 1266375,-3096136 250511,-1062872 469251,-2626766 656928,-4690621 249921,-2689719 375235,-7521363 375235,-14495286 0,-6974396 -171732,-12478440 -515904,-16512605 -344054,-4034165 -844487,-6786246 -1501414,-8256007 -656455,-1469879 -1516414,-2204996 -2579759,-2204996 -2502042,0 -4518889,109370 -6051602,328228 -1532241,219330 -2892632,750471 -4081291,1595076 -1188068,844487 -2063854,1782634 -2626766,2814916 -562794,1031691 -1032163,2720782 -1407399,5065856z"/>
  <path class="fil2" d="M466381075 266167853l0 -66331167c0,-2314365 2252003,-3471843 6755065,-3471843 938148,0 1673264,31653 2204996,94016 531731,62362 1204013,359409 2016846,891140 813424,531731 1532713,1298029 2157988,2299011l16793825 39404567 -562912 -39310906c0,-2251531 2252003,-3377828 6755065,-3377828 1876768,0 3158970,219330 3847079,656928 687636,437598 1062872,1344564 1125706,2720900l1501060 28239983 0 38466301c0,1063462 -31181,1782752 -94134,2157988 -249921,875786 -1469761,1313383 -3658930,1313383 -4065346,0 -6504554,-1156887 -7317859,-3471371l-18482443 -38935670 93543 38842127c0,1125825 -31181,1876295 -93543,2251531 -250511,875786 -1469879,1313383 -3659048,1313383 -6254987,0 -9382304,-1251021 -9382304,-3752473z"/>
  <path class="fil2" d="M548559769 225731123c2501452,0 3752473,1125706 3752473,3377237 0,3064955 -187677,5160462 -562912,6286287 -375235,1125706 -1344564,1688619 -2908459,1688619l-18388782 0 0 19983976 21672476 0c1501060,62362 2533223,359291 3096136,891022 562912,531731 844605,1329210 844605,2392672 0,3064836 -281692,5175816 -844605,6332704 -562912,1157006 -1688619,1735626 -3377237,1735626l-33025210 0 -1501060 -1500942 0 -69051949 33306429 0c2689601,62362 4034165,1063344 4034165,3002002 -62362,1688619 -156378,3017829 -281102,3987630 -125315,969329 -516377,1923303 -1172832,2861451 -656928,938148 -1610902,1407517 -2861923,1407517l-20921533 0 1031691 16606148 18107680 0z"/>
  <path class="fil2" d="M586351308 198992082c0,-1751453 2111334,-2627239 6333176,-2627239 4221842,0 6614514,1157478 7177427,3471843l12665526 50381356 9007069 -41093067c249921,-1251021 781652,-2095626 1594485,-2533223 813424,-438188 2189169,-656928 4128299,-656928 5003494,0 7849591,1344564 8537699,4034165l10132893 40249053 11164466 -50381356c312873,-1376218 875786,-2299011 1688619,-2767908 813424,-469251 2408027,-703936 4784754,-703936 2376728,0 3924795,156378 4644085,469369 719408,312873 1079289,1032163 1079289,2157870 0,250039 -31181,531731 -94134,844605l-15668000 66706402c-312873,1313383 -765825,2204405 -1360391,2673774 -594093,468779 -1548068,703463 -2861451,703463 -6692703,0 -10351633,-1125706 -10976907,-3377237l-9945216 -33306429 -8443566 33118753c-312992,1375745 -781770,2313893 -1407517,2814443 -625274,500432 -1563422,750471 -2814325,750471 -6692703,0 -10320452,-1125706 -10883364,-3377237l-18388900 -66988094c-62362,-187677 -94016,-375235 -94016,-562912z"/>
  <path class="fil2" d="M704936464 199554995c0,-1313383 297047,-2173342 891612,-2580231 594093,-406417 1829170,-609920 3705465,-609920 4503534,0 6786719,1157478 6849081,3471843l1782752 28145967 0 38466301c0,1063462 -31181,1782752 -94016,2157988 -250039,875786 -1469879,1313383 -3659048,1313383 -6316877,0 -9475847,-1125706 -9475847,-3377237l0 -27208292 -15386308 0 93543 27114158c0,1063462 -31181,1782752 -93543,2157988 -250511,875786 -1469879,1313383 -3659048,1313383 -6254987,0 -9382304,-1188068 -9382304,-3564914l0 -66706402c0,-1376218 297047,-2267358 891612,-2674247 594093,-406417 1829288,-609920 3705465,-609920 4503534,0 6786837,1094525 6849199,3284167l1595076 28427660 15386308 0 0 -28521675z"/>
  <path class="fil2" d="M725742958 233611895c0,-9945216 781770,-17575949 2345665,-22892435 1563895,-5316367 4049992,-9037659 7458528,-11164466 3408891,-2126807 8334786,-3190151 14776860,-3190151 6442192,0 11367969,1063344 14776978,3190151 3408418,2126807 5879280,5832744 7411521,11117931 1532713,5285304 2298539,12931391 2298539,22938970 0,13697689 -1750981,23173654 -5253533,28427660 -3503024,5254005 -9914035,7880772 -19233505,7880772 -9319351,0 -15746189,-2626766 -19279922,-7880772 -3534206,-5254005 -5301131,-14729971 -5301131,-28427660zm15668118 -17497760c-375235,2345546 -594093,4722392 -656928,7130773 -62362,2408027 -93661,6489200 -93661,12243283 0,5754555 187677,10570373 562912,14448751 375235,3877669 875786,6426247 1501060,7646087 625747,1219840 1469761,1829760 2533223,1829760 5504044,0 9100612,-563385 10789230,-1689209 625747,-437598 1235667,-1156887 1829760,-2157870 593975,-1000510 1016337,-2032791 1266257,-3096136 250511,-1062872 469369,-2626766 657046,-4690621 249921,-2689719 375235,-7521363 375235,-14495286 0,-6974396 -171850,-12478440 -515904,-16512605 -344054,-4034165 -844605,-6786246 -1501532,-8256007 -656455,-1469879 -1516296,-2204996 -2579641,-2204996 -2502042,0 -4518889,109370 -6051602,328228 -1532241,219330 -2892632,750471 -4081291,1595076 -1188068,844487 -2063854,1782634 -2626766,2814916 -562912,1031691 -1032163,2720782 -1407399,5065856z"/>
  <path class="fil1" d="M827988895 196364843c6817427,0 11977889,969801 15480441,2908459 3502552,1939130 6035657,5457509 7599552,10555136 1563422,5097509 2345665,12650172 2345665,22657750 0,13885248 -1813933,23595780 -5441682,29131005 -3627749,5535816 -10289271,8303133 -19983976,8303133 -2376728,0 -9225926,-500550 -20546770,-1501060l0 -70459347c9507028,-1063344 16356109,-1595076 20546770,-1595076zm4972313 11165056c-5441682,0 -8850100,109370 -10226318,328228 -1375745,218740 -2063854,828660 -2063854,1829642l0 47097780c0,688109 422243,1094525 1266257,1219722 844605,125315 2564404,187677 5160462,187677 2595585,0 4424873,-140551 5488217,-422243 1063462,-281220 2048618,-781770 2955467,-1501060 906967,-719290 1516887,-2110862 1829288,-4175307 625747,-4002984 938620,-10195255 938620,-18576459 0,-17325556 -1782752,-25987980 -5348139,-25987980z"/>
  <path class="fil1" d="M860248280 233611895c0,-9945216 781652,-17575949 2345546,-22892435 1563895,-5316367 4050110,-9037659 7458528,-11164466 3409009,-2126807 8334786,-3190151 14776978,-3190151 6442192,0 11367969,1063344 14776978,3190151 3408418,2126807 5879280,5832744 7411403,11117931 1532713,5285304 2298539,12931391 2298539,22938970 0,13697689 -1750981,23173654 -5253533,28427660 -3503024,5254005 -9913917,7880772 -19233387,7880772 -9319470,0 -15746307,-2626766 -19279922,-7880772 -3534324,-5254005 -5301131,-14729971 -5301131,-28427660zm15668000 -17497760c-375235,2345546 -593975,4722392 -656928,7130773 -62362,2408027 -93543,6489200 -93543,12243283 0,5754555 187677,10570373 562912,14448751 375235,3877669 875786,6426247 1500942,7646087 625865,1219840 1469879,1829760 2533223,1829760 5504044,0 9100612,-563385 10789230,-1689209 625865,-437598 1235785,-1156887 1829760,-2157870 594093,-1000510 1016337,-2032791 1266375,-3096136 250511,-1062872 469369,-2626766 656928,-4690621 250039,-2689719 375235,-7521363 375235,-14495286 0,-6974396 -171732,-12478440 -515786,-16512605 -344054,-4034165 -844605,-6786246 -1501532,-8256007 -656455,-1469879 -1516296,-2204996 -2579759,-2204996 -2502042,0 -4518889,109370 -6051602,328228 -1532123,219330 -2892514,750471 -4081173,1595076 -1188187,844487 -2063854,1782634 -2626766,2814916 -562912,1031691 -1032163,2720782 -1407517,5065856z"/>
  <path class="fil1" d="M953691597 257348344c1563422,0 2345074,1000982 2345074,3002592 0,2001492 -31181,3502434 -93543,4502944 -250039,2252003 -1251021,3534206 -3002474,3847079 -5566406,812951 -9694705,1219368 -12384424,1219368 -9319351,0 -15730362,-2626766 -19232914,-7880772 -3502552,-5254005 -5254005,-14729971 -5254005,-28427660 0,-10007578 766298,-17653665 2298539,-22938970 1532713,-5285186 4002984,-8991124 7411993,-11117931 3409009,-2126807 8506518,-3190151 15292765,-3190151 6786246,0 11743205,1063344 14870521,3190151 625274,437598 938148,969329 938148,1595076 0,625274 -297047,1797989 -891140,3518379 -594566,1719800 -1157478,2939640 -1689091,3658930 -531731,719290 -1078699,1078699 -1641611,1078699 -562912,0 -1000982,-31181 -1313383,-93543 -4691211,-938620 -8741203,-1407399 -12150212,-1407399 -3408418,0 -5628768,1876177 -6660932,5629241 -1032281,3752591 -1548068,9835256 -1548068,18247759 0,8413093 218858,14276428 656928,17591422 437598,3315348 1250549,5629241 2439208,6943096 1188068,1313383 3080191,1969839 5676248,1969839 2595585,0 5535225,-155905 8818919,-468779 3283694,-312873 4988258,-469369 5113454,-469369z"/>
  <path class="fil1" d="M963998229 261570186c-1313383,-1626257 -1970311,-2861451 -1970311,-3705465 0,-844605 734644,-2001492 2204996,-3471371 1469879,-1470233 2439090,-2267358 2907986,-2392554 469251,-125315 922793,-187677 1360391,-187677 438070,0 1157478,281220 2157988,844132 4628731,3627749 8694195,5441682 12196629,5441682 3502552,0 5785736,-812951 6849199,-2439208 1063344,-1626257 1595076,-3753063 1595076,-6379830 0,-2626766 -938738,-4753455 -2814916,-6379712 -1876295,-1626257 -4957077,-3596568 -9241281,-5911051 -4284676,-2313893 -8021913,-5316367 -11211474,-9006478 -3190151,-3690229 -4784754,-7505536 -4784754,-11446276 0,-7004986 1829170,-12118440 5488217,-15339300 3658930,-3221332 9022423,-4832234 16090243,-4832234 4315976,0 8537818,1032163 12666116,3096136 2189051,875668 3220742,1782634 3096017,2720782 -62835,375235 -125197,938620 -187559,1689091 -1188659,3377355 -2095626,5316485 -2720900,5816918 -187559,124842 -609920,187677 -1266848,187677 -656455,0 -2392082,-516377 -5206997,-1548068 -2814325,-1032163 -5206997,-1548068 -7177308,-1548068 -1970311,0 -3611922,687636 -4925305,2063972 -1313856,1376218 -1970311,3314875 -1970311,5816918 0,2501924 1125706,4769282 3377237,6802073 2252003,2032673 5723374,4143535 10414467,6332704 4941250,2564404 8646715,5222824 11117576,7974905 2470743,2751963 3705937,6442192 3705937,11070923 0,15386308 -6505026,23079521 -19514607,23079521 -9694705,0 -17106698,-2783144 -22235507,-8350141z"/>
  <path class="fil2" d="M1062990118 229844540l-25039 -26609120c0,-2771924 -1788894,-5040344 -4218299,-5851642 -59291,-1160549 -472912,-2279169 -1324604,-3137474 -1000982,-1006652 -2426334,-1576178 -3907433,-1576178 -2860860,7087 -5174281,2130823 -5258612,4769400 -2372239,845549 -4074086,3070506 -4074086,5801563 0,7087 25039,26641246 25039,26641246l1478973 -7559 16417 18084649c0,275078 45000,625747 66378,936612l15276466 0c32244,-394251 72047,-788384 72047,-1084368l-19842 -17967129 1892595 0 0 0zm-9424824 -2541373c-1754052,0 -3166529,-1433029 -3166529,-3186017 0,-1026612 510117,-1896256 1265312,-2481609l0 -21264643c0,-1053659 851691,-1908421 1901217,-1908421 1046100,0 1894248,854762 1894248,1908421l0 21264643c750943,585353 1268856,1454525 1268856,2481609 0,1752989 -1418147,3186017 -3163104,3186017zm-7339828 24773218c993778,4651880 3195230,10312302 4989203,12195684l3543 5826721c7205,1319525 1071021,2381806 2382869,2378263 1308304,0 2369168,-1070077 2363499,-2385468l-12283 -5855776c2012831,-2465192 3734166,-7984590 4582786,-12159425l-14309617 0 0 0zm-1790429 15629733l-22348420 0c-1307714,0 -2372121,1070077 -2372121,2385468 0,1315391 1064407,2385468 2372121,2385468l22348420 0c1311848,0 2372239,-1070077 2372239,-2385468 0,-1315391 -1060392,-2385468 -2372239,-2385468z"/>
  <path class="fil2" d="M389568709 337414286l403984389 0 11202852 0 0 11202852 0 145889708 108253130 0 0 22405703 -108253130 0 -2800742 0 0 33383319 36671383 0 0 8402227 5243493 0 0 98897637 0 1360627 -41914877 12991273 0 166072817 -6506562 0 3848142 4090149 -95326817 89758403 0 48158880 0 8402109 -8402109 0 -210026037 0 -8402109 0 0 -8402109 0 -48213801 -93380246 -89769033 3871646 -4024598 -6464633 0 0 -166142739 -34070011 -11039387 -5842311 -1893185 0 -6082074 0 -94164969 8402109 0 0 -8402227 31510213 0 0 -33383319 -2800624 0 -110275291 0 0 -22405703 110275291 0 0 -145889708 0 -11202852 11202852 0zm225559273 616666601l-50157301 0 -591 -16832329 50157419 28110 472 16804218zm7422505 -212353985l7139041 -10137499 13718949 9648996 -9658445 13715169 -4454873 -3133458 0 6711010 -75468629 0 0 -7659315 -5802981 4081763 -9658563 -13715169 13718949 -9648996 7139041 10137499 63327511 0zm37430949 121129718l-136841183 0 0 -16804218 136841183 0 0 16804218zm167084430 -295756416l-25110658 0 -4488 87143566 25115147 -7467741 0 -79675825zm-445899384 87167660l0 -87167660 -23108103 0 0 79680313 23108103 7487347zm251644103 -87167660l11793874 112091823 140546530 0 0 -112091823 -152340404 0zm152340404 128896041l-148088916 0 -7542268 0 -794290 -7549001 -12767927 -121347041 -53503712 0 -12253086 121314561 -766298 7581481 -7570260 0 -143893413 0 0 136463703 79168897 76107131 0 -109799780 0 -8402109 8402109 0 210026037 0 8402109 0 0 8402109 0 110076512 81181019 -76438784 0 -136408782zm-387180171 -16804218l136322444 0 11321670 -112091823 -147644114 0 0 112091823zm0 -128896160l387180171 0 0 -33383319 -387180171 0 0 33383319zm289194933 256873659l-193221818 0 0 164456128 193221818 0 0 -164456128zm95184495 -447349538l-381578686 0 0 134686857 381578686 0 0 -134686857z"/>
 </g>
</svg>
